HIERARCHY
ROOT Hips
{
	OFFSET -0.001795 -0.223333 0.028219
	CHANNELS 6 Xposition Yposition Zposition Zrotation Yrotation Xrotation 
	JOINT LeftUpLeg
	{
		OFFSET 0.069520 -0.091406 -0.006815
		CHANNELS 3 Zrotation Yrotation Xrotation
		JOINT LeftLeg
		{
			OFFSET 0.034277 -0.375199 -0.004496
			CHANNELS 3 Zrotation Yrotation Xrotation
			JOINT LeftFoot
			{
				OFFSET -0.013596 -0.397961 -0.043693
				CHANNELS 3 Zrotation Yrotation Xrotation
				JOINT LeftToe
				{
					OFFSET 0.026358 -0.055791 0.119288
					CHANNELS 3 Zrotation Yrotation Xrotation
					End Site
					{
						OFFSET 0.000000 0.000000 0.000000
					}
				}
			}
		}
	}
	JOINT RightUpLeg
	{
		OFFSET -0.067670 -0.090522 -0.004320
		CHANNELS 3 Zrotation Yrotation Xrotation
		JOINT RightLeg
		{
			OFFSET -0.038290 -0.382569 -0.008850
			CHANNELS 3 Zrotation Yrotation Xrotation
			JOINT RightFoot
			{
				OFFSET 0.015774 -0.398415 -0.042312
				CHANNELS 3 Zrotation Yrotation Xrotation
				JOINT RightToe
				{
					OFFSET -0.025372 -0.048144 0.123348
					CHANNELS 3 Zrotation Yrotation Xrotation
					End Site
					{
						OFFSET 0.000000 0.000000 0.000000
					}
				}
			}
		}
	}
	JOINT Spine
	{
		OFFSET -0.002533 0.108963 -0.026696
		CHANNELS 3 Zrotation Yrotation Xrotation
		JOINT Spine1
		{
			OFFSET 0.005487 0.135180 0.001092
			CHANNELS 3 Zrotation Yrotation Xrotation
			JOINT Spine2
			{
				OFFSET 0.001457 0.052922 0.025425
				CHANNELS 3 Zrotation Yrotation Xrotation
				JOINT Neck
				{
					OFFSET -0.002778 0.213870 -0.042857
					CHANNELS 3 Zrotation Yrotation Xrotation
					JOINT Head
					{
						OFFSET 0.005152 0.064970 0.051349
						CHANNELS 3 Zrotation Yrotation Xrotation
						End Site
						{
							OFFSET 0.000000 0.000000 0.000000
						}
					}
				}
				JOINT LeftShoulder
				{
					OFFSET 0.078845 0.121749 -0.034090
					CHANNELS 3 Zrotation Yrotation Xrotation
					JOINT LeftArm
					{
						OFFSET 0.090977 0.030469 -0.008868
						CHANNELS 3 Zrotation Yrotation Xrotation
						JOINT LeftForeArm
						{
							OFFSET 0.259612 -0.012772 -0.027456
							CHANNELS 3 Zrotation Yrotation Xrotation
							JOINT LeftHand
							{
								OFFSET 0.249234 0.008986 -0.001171
								CHANNELS 3 Zrotation Yrotation Xrotation
								End Site
								{
									OFFSET 0.000000 0.000000 0.000000
								}
							}
						}
					}
				}
				JOINT RightShoulder
				{
					OFFSET -0.081759 0.118833 -0.038615
					CHANNELS 3 Zrotation Yrotation Xrotation
					JOINT RightArm
					{
						OFFSET -0.096012 0.032551 -0.009143
						CHANNELS 3 Zrotation Yrotation Xrotation
						JOINT RightForeArm
						{
							OFFSET -0.253742 -0.013329 -0.021401
							CHANNELS 3 Zrotation Yrotation Xrotation
							JOINT RightHand
							{
								OFFSET -0.255298 0.007772 -0.005559
								CHANNELS 3 Zrotation Yrotation Xrotation
								End Site
								{
									OFFSET 0.000000 0.000000 0.000000
								}
							}
						}
					}
				}
			}
		}
	}
}
MOTION
Frames: 7
Frame Time: 0.050000
-0.000616 0.959721 0.111368 -1.815741 0.647099 2.304450 4.735550 0.169810 5.404687 0.891249 0.052257 -3.554304 5.939962 15.832282 27.890376 0.000000 0.000000 0.000000 -1.222633 -0.262709 3.253873 -1.112029 0.223604 2.135347 -0.507373 -9.293739 25.954105 0.000000 0.000000 0.000000 -5.032695 0.062805 -4.589451 7.641922 -1.031349 -26.180045 -0.248076 -6.412808 30.703701 -3.657457 2.717233 -29.229037 0.000000 0.000000 0.000000 16.586942 -20.238261 3.327262 11.788714 -45.018111 -5.730023 88.898213 -3.687018 -1.950785 0.000000 0.000000 0.000000 -32.323967 28.119659 2.801572 -1.031252 41.113997 -4.158549 -94.447513 3.094816 -4.128680 0.000000 0.000000 0.000000 
0.001751 0.959590 0.112283 -1.852146 0.548544 2.290317 4.745149 0.181560 5.621249 0.665579 0.098160 -4.284639 6.391185 16.452150 29.456180 0.000000 0.000000 0.000000 -1.311608 -0.239781 3.060106 -1.117724 0.240614 2.465931 -0.636741 -9.572198 26.319018 0.000000 0.000000 0.000000 -4.930726 0.065610 -4.641066 7.468931 -0.971558 -26.409045 -0.305822 -6.244317 30.949532 -3.539800 2.657991 -28.579271 0.000000 0.000000 0.000000 17.091853 -20.048661 3.180702 11.443252 -44.891230 -5.602023 89.801999 -3.112750 -1.432966 0.000000 0.000000 0.000000 -32.870630 27.408541 2.646054 -1.297656 41.066050 -4.217788 -95.356772 2.406146 -3.473269 0.000000 0.000000 0.000000 
0.004201 0.959269 0.113269 -1.764047 0.626272 2.075791 4.663347 0.201373 5.890380 0.397292 0.115533 -4.246881 6.358793 16.412610 29.258167 0.000000 0.000000 0.000000 -1.501803 -0.241277 3.181347 -1.144315 0.251451 2.615306 -0.896610 -10.026246 26.852283 0.000000 0.000000 0.000000 -4.950254 0.061090 -4.556847 7.246842 -0.921049 -26.453351 -0.341765 -6.201166 31.152457 -3.505790 2.644890 -28.039487 0.000000 0.000000 0.000000 17.046747 -19.545736 3.090041 11.550924 -45.221143 -5.716039 91.099493 -2.888006 -1.298289 0.000000 0.000000 0.000000 -33.006029 26.680209 2.571601 -1.951706 41.330652 -4.436521 -96.293523 1.452598 -2.512012 0.000000 0.000000 0.000000 
0.006486 0.958873 0.113976 -1.670306 0.459591 1.933242 4.541698 0.230515 6.202093 0.132218 0.138761 -4.375108 6.445675 16.482864 29.162744 0.000000 0.000000 0.000000 -1.815271 -0.231132 3.269216 -1.189656 0.261800 2.703313 -0.651326 -9.757333 27.055426 0.000000 0.000000 0.000000 -4.898674 0.061229 -4.470633 7.026546 -0.845222 -26.788911 -0.350593 -5.896033 31.404535 -3.707348 2.789349 -27.700074 0.000000 0.000000 0.000000 17.364048 -19.245909 2.976485 11.027315 -45.449031 -5.623880 91.923694 -2.894732 -1.325438 0.000000 0.000000 0.000000 -33.219026 26.246943 2.467081 -1.686303 41.129857 -4.300536 -96.480351 1.531404 -2.530925 0.000000 0.000000 0.000000 
0.008392 0.958432 0.114135 -1.596678 0.154336 1.841982 4.444531 0.252268 6.355176 -0.141209 0.156976 -4.344948 6.626153 16.638601 29.087276 0.000000 0.000000 0.000000 -2.028775 -0.201738 3.081688 -1.163836 0.277799 3.094768 -0.796515 -10.021943 27.059238 0.000000 0.000000 0.000000 -4.840598 0.063707 -4.124232 6.915235 -0.799039 -27.076245 -0.341317 -5.629823 31.339537 -3.736713 2.821311 -27.931399 0.000000 0.000000 0.000000 17.207314 -18.551256 2.889253 10.524449 -45.907187 -5.573191 92.228871 -3.102820 -1.490193 0.000000 0.000000 0.000000 -33.155298 25.757148 2.470691 -1.287770 41.282191 -4.206297 -96.265332 1.766269 -2.726233 0.000000 0.000000 0.000000 
0.009781 0.958355 0.113694 -1.579368 -0.055230 1.807761 4.301035 0.268586 6.385543 -0.143937 0.156464 -4.316756 6.752804 16.753819 29.082804 0.000000 0.000000 0.000000 -2.225614 -0.177225 2.928280 -1.113303 0.272670 3.124102 -0.692728 -10.033198 27.642221 0.000000 0.000000 0.000000 -4.781947 0.066126 -3.674540 6.829154 -0.768358 -27.206140 -0.220232 -5.352407 30.980840 -4.085543 3.047366 -27.761135 0.000000 0.000000 0.000000 16.759740 -18.197694 2.946182 10.204317 -46.541723 -5.627923 92.335742 -4.303985 -2.663933 0.000000 0.000000 0.000000 -33.101881 25.422520 2.472958 -0.414506 41.827057 -4.002733 -96.213079 2.701195 -3.545918 0.000000 0.000000 0.000000 
0.010597 0.958637 0.112942 -1.511612 -0.270453 1.698960 4.215455 0.295687 6.672733 -0.275841 0.176122 -4.636802 6.805760 16.795125 29.231871 0.000000 0.000000 0.000000 -2.330836 -0.149203 2.662946 -1.172108 0.301675 3.544591 -0.725506 -10.184328 27.974011 0.000000 0.000000 0.000000 -4.714720 0.066589 -3.119468 6.833583 -0.725072 -27.735720 -0.289915 -5.220187 31.024266 -4.264133 3.147881 -27.537667 0.000000 0.000000 0.000000 16.228646 -17.699483 2.948007 9.081945 -46.991348 -5.372066 92.139508 -6.022058 -4.226349 0.000000 0.000000 0.000000 -32.952743 25.013203 2.494095 0.561981 42.758139 -3.852135 -95.341007 4.186270 -4.936910 0.000000 0.000000 0.000000 
